#!OML:ASF G:\acrobat\cartwheel_test\acrobat_wednesday\Session 1\acrobatwednesday.ASF
:FULLY-SPECIFIED
:DEGREES
34
root 26.3869 16.2905 0.95714 50.41 86.627 42.5511
lowerback -7.88357 -0.237763 -2.44143
upperback -1.15063 -0.0770368 -0.0641269
thorax 3.23302 -0.0536383 1.29869
lowerneck -14.3713 -16.0526 -14.8279
upperneck 28.2185 -20.1962 4.48142
head 14.0172 -9.75082 0.538963
rclavicle 7.11898e-015 1.98785e-015
rhumerus -32.8 -9.68529 -84.3063
rradius 21.2936
rwrist 34.0465
rhand -21.9818 5.84287
rfingers 7.12502
rthumb 4.42638 -24.0909
lclavicle 7.11898e-015 1.98785e-015
lhumerus -27.3085 7.33992 83.3257
lradius 14.8722
lwrist 5.86327
lhand -21.6161 -12.7734
lfingers 7.12502
lthumb 4.77949 17.1527
rfemur 6.66642 18.4169 21.9838
rtibia -4.52764
rfoot -27.2491 16.2496
rtoes 9.53495
lfemur 2.81914 -5.33893 -25.0572
ltibia 1.30722
lfoot 6.2361 17.3021
ltoes -40.1319
35
root 26.3803 16.2911 0.962947 53.5355 86.6178 45.7091
lowerback -7.76552 -0.29534 -2.60052
upperback -1.19866 -0.14346 -0.0741454
thorax 3.12053 -0.0862969 1.37093
lowerneck -14.352 -16.0857 -14.9777
upperneck 28.255 -20.2736 4.66764
head 14.083 -9.77278 0.608848
rclavicle -8.01351e-016 -1.03368e-014
rhumerus -32.8115 -9.51801 -84.3254
rradius 21.3075
rwrist 34.035
rhand -22.197 5.87674
rfingers 7.12502
rthumb 4.21852 -24.0612
lclavicle -8.01351e-016 -1.03368e-014
lhumerus -27.2772 7.62894 83.109
lradius 14.7892
lwrist 5.63598
lhand -21.8531 -12.6648
lfingers 7.12502
lthumb 4.55063 17.2663
rfemur 6.67002 18.2061 21.837
rtibia -4.50093
rfoot -27.0975 16.3548
rtoes 8.72017
lfemur 2.75678 -5.2744 -25.1667
ltibia 1.40075
lfoot 6.21716 17.1923
ltoes -39.9759
36
root 26.3748 16.2928 0.968066 54.8899 86.7 47.0962
lowerback -7.69191 -0.342287 -2.5852
upperback -1.21514 -0.210855 -0.0435358
thorax 3.06535 -0.118983 1.38716
lowerneck -14.3982 -16.1234 -15.0616
upperneck 28.271 -20.3299 4.74828
head 14.128 -9.79194 0.631549
rclavicle -1.21756e-015 -7.55382e-015
rhumerus -32.8359 -9.3224 -84.3625
rradius 21.4434
rwrist 33.9593
rhand -22.1205 5.80869
rfingers 7.12502
rthumb 4.29237 -24.1278
lclavicle -1.21756e-015 -7.55382e-015
lhumerus -27.1719 7.90689 82.9259
lradius 14.7018
lwrist 5.50123
lhand -22.0274 -12.7135
lfingers 7.12502
lthumb 4.38227 17.2212
rfemur 6.68896 18.0845 21.8838
rtibia -4.44483
rfoot -27.0101 16.4766
rtoes 8.45286
lfemur 2.75419 -5.22031 -25.1046
ltibia 1.38165
lfoot 6.30665 17.0822
ltoes -39.704
37
root 26.3705 16.2938 0.974718 56.017 86.7388 48.236
lowerback -7.70292 -0.366798 -2.61275
upperback -1.19722 -0.241903 -0.0157289
thorax 3.09161 -0.135492 1.42815
lowerneck -14.54 -16.1576 -15.0331
upperneck 28.3141 -20.3631 4.71936
head 14.1715 -9.80078 0.596615
rclavicle 8.19987e-016 1.39149e-015
rhumerus -32.8091 -9.45105 -84.2959
rradius 21.4876
rwrist 34.2391
rhand -22.0292 5.74829
rfingers 7.12502
rthumb 4.38061 -24.1864
lclavicle 8.19987e-016 1.39149e-015
lhumerus -26.9519 8.24633 82.7595
lradius 14.6148
lwrist 5.3424
lhand -22.0246 -12.7165
lfingers 7.12502
lthumb 4.385 17.2181
rfemur 6.71951 18.1592 21.9372
rtibia -4.44071
rfoot -27.1186 16.5954
rtoes 8.90882
lfemur 2.76379 -5.18005 -25.0624
ltibia 1.3365
lfoot 6.24571 16.9375
ltoes -39.6589
38
root 26.3663 16.2945 0.982545 58.1361 86.7421 50.3418
lowerback -7.74759 -0.381251 -2.71302
upperback -1.17581 -0.250852 -0.0242778
thorax 3.13949 -0.141837 1.47461
lowerneck -14.6322 -16.1999 -14.9557
upperneck 28.2841 -20.4372 4.72875
head 14.176 -9.82128 0.567518
rclavicle 1.37907e-015 8.54774e-015
rhumerus -32.6532 -9.72177 -84.2219
rradius 21.3259
rwrist 34.659
rhand -22.0085 5.66035
rfingers 7.12502
rthumb 4.40053 -24.2739
lclavicle 1.37907e-015 8.54774e-015
lhumerus -26.6913 8.53264 82.6065
lradius 14.5885
lwrist 5.17208
lhand -22.0931 -12.4173
lfingers 7.12502
lthumb 4.31891 17.5187
rfemur 6.72029 18.2589 21.9134
rtibia -4.4638
rfoot -27.3004 16.5956
rtoes 9.36423
lfemur 2.70454 -5.17465 -25.0815
ltibia 1.32074
lfoot 6.12621 16.7612
ltoes -39.1703
